<svg xmlns="http://www.w3.org/2000/svg" viewBox="0 0 512 512" width="512" height="512" role="img" aria-label="bundlebox">
  <defs>
    <linearGradient id="g" x1="0" y1="0" x2="1" y2="1">
      <stop offset="0" stop-color="#1F7A5C"/>
      <stop offset="1" stop-color="#0B3D2E"/>
    </linearGradient>
    <linearGradient id="lid" x1="0" y1="0" x2="1" y2="0">
      <stop offset="0" stop-color="#3FB58A"/>
      <stop offset="1" stop-color="#1F7A5C"/>
    </linearGradient>
  </defs>
  <rect width="512" height="512" rx="96" fill="url(#g)"/>
  <!-- the box -->
  <path d="M256 118 L392 190 L392 340 L256 412 L120 340 L120 190 Z" fill="#0B3D2E" stroke="#E8F5EE" stroke-width="14" stroke-linejoin="round"/>
  <path d="M256 118 L392 190 L256 262 L120 190 Z" fill="url(#lid)" stroke="#E8F5EE" stroke-width="14" stroke-linejoin="round"/>
  <path d="M256 262 L256 412" stroke="#E8F5EE" stroke-width="14" stroke-linecap="round"/>
  <!-- the bundle: three packed rows, the token windows -->
  <rect x="152" y="292" width="76" height="14" rx="7" fill="#3FB58A"/>
  <rect x="152" y="320" width="56" height="14" rx="7" fill="#3FB58A" opacity="0.8"/>
  <rect x="152" y="348" width="66" height="14" rx="7" fill="#3FB58A" opacity="0.6"/>
  <rect x="284" y="292" width="76" height="14" rx="7" fill="#3FB58A"/>
  <rect x="284" y="320" width="66" height="14" rx="7" fill="#3FB58A" opacity="0.8"/>
  <rect x="284" y="348" width="46" height="14" rx="7" fill="#3FB58A" opacity="0.6"/>
  <!-- zero: the control layer costs nothing -->
  <circle cx="256" cy="190" r="26" fill="#E8F5EE"/>
  <text x="256" y="200" font-family="ui-monospace, SFMono-Regular, Menlo, monospace" font-size="30" font-weight="700" text-anchor="middle" fill="#0B3D2E">0</text>
</svg>
